<svg id="图层_1" data-name="图层 1" xmlns="http://www.w3.org/2000/svg" viewBox="0 0 629.43 284.23"><title>bfe开源logo横版最终版-黑色</title><polygon points="122.82 0 141.16 10.62 18.35 81.84 0 71.22 122.82 0"/><polygon points="19.43 223.38 0.43 212.41 0.43 70.41 19.43 81.38 19.43 223.38"/><polygon points="172.82 30.55 191.16 41.17 68.35 112.4 50 101.78 172.82 30.55"/><polygon points="69.43 253.93 50.43 242.96 50.43 100.96 69.43 111.93 69.43 253.93"/><polygon points="225.82 60.55 244.16 71.17 121.35 142.4 103 131.78 225.82 60.55"/><polygon points="122.43 283.93 103.43 272.96 103.43 130.96 122.43 141.93 122.43 283.93"/><polygon points="244.9 122.42 244.9 144.36 121.92 215.36 121.92 193.42 244.9 122.42"/><polygon points="244.43 191.29 244.43 213.23 121.45 284.23 121.45 262.29 244.43 191.29"/><path d="M635,349.21q0,14.7-10.9,22.33Q615.39,377,603.4,377H552.73V285.47h52.85q10.89,0,18.52,5.44,8.17,6.54,8.18,18.53,0,11.43-7.63,18.52Q635,335.6,635,349.21m-15.8-39.77q0-10.89-13.62-10.9H565.81v24.52h34.87q18.51,0,18.52-13.62m3.27,39.77a12.4,12.4,0,0,0-4.9-10.35,13.78,13.78,0,0,0-9.27-3.27H565.81v28.33H603.4q19.07,0,19.07-14.71" transform="translate(-238.57 -191.11)"/><polygon points="511.59 108.29 453.39 108.29 453.39 130.92 506.74 130.92 506.74 143.86 453.39 143.86 453.39 185.89 440.99 185.89 440.99 95.36 511.59 95.36 511.59 108.29"/><path d="M868,377.48H833.94q-20,0-28.12-8.65-8.12-9.19-8.11-30.28V286.64H868v13H810.15v24.87h54.61v12.44H810.15v1.62q0,15.13,5.4,20.54,4.88,5.42,18.39,5.41H868Z" transform="translate(-238.57 -191.11)"/></svg>