<?xml version="1.0" encoding="UTF-8"?>
<svg width="284px" height="418px" viewBox="0 0 284 418" version="1.1" xmlns="http://www.w3.org/2000/svg" xmlns:xlink="http://www.w3.org/1999/xlink">
    <title>bfe开源logo横版黑白</title>
    <g id="bfe开源logo横版黑白" stroke="none" stroke-width="1" fill="none" fill-rule="evenodd">
        <path d="M265.922149,122.056029 C224.897586,145.702865 184.692515,168.890345 143.677946,192.527194 C143.677946,189.880906 143.677946,188.263174 143.677946,186.655429 C143.677946,173.184322 143.857834,159.703229 143.568014,146.232122 C143.47807,142.287655 144.937165,140.38033 148.195145,138.512949 C177.616902,121.626631 206.928728,104.570552 236.280528,87.5544172 C245.74466,82.0721061 255.198798,76.579809 265.37249,70.6780861 C260.295638,67.7222316 255.768445,65.3255929 251.521078,62.5095423 C248.522937,60.5223294 246.194381,60.5123434 242.98637,62.3897104 C203.78068,85.2776104 164.475051,107.985763 125.219391,130.733859 C125.139441,131.083368 125.019515,131.40292 125.019515,131.732458 C125,177.4783 124.959552,223.234128 125.119453,268.97997 C125.129447,270.647631 126.638511,272.874508 128.1076,273.873108 C132.225047,276.669186 136.602333,279.105769 141.049576,281.362604 C142.368758,282.031665 144.617363,282.271329 145.796632,281.602268 C184.892391,259.203681 223.918193,236.675277 262.914014,214.096943 C264.03332,213.447853 265.442447,212.0598 265.482422,210.971327 C265.722273,204.560318 265.602347,198.139323 265.602347,190.769659 C224.687716,214.356579 184.552602,237.484143 143.697933,261.041104 C143.697933,246.371678 143.867828,232.910557 143.588002,219.449436 C143.508051,215.52494 144.89719,213.627601 148.185151,211.740248 C186.131623,190.010724 223.998144,168.131409 261.82469,146.192178 C263.483661,145.233523 265.642323,143.386114 265.752254,141.818313 C266.181988,135.577066 265.922149,129.285889 265.922149,122.056029 Z" id="路径" fill="#FFFFFF" fill-rule="nonzero"></path>
        <path d="M90.7174641,253 C90.7174641,250.04622 90.7174641,248.230044 90.7174641,246.40389 C90.7174641,202.995297 90.7673171,159.586704 90.6376992,116.178111 C90.6277286,112.535781 91.7843197,110.619815 94.9350334,108.80364 C132.055625,87.4186707 169.076511,65.8740381 206.117338,44.3693213 C207.902078,43.3315067 209.636965,42.2038812 212,40.7569281 C206.615869,37.6235262 201.820004,35.0289896 197.253463,32.0752095 C194.76081,30.4685926 192.896306,30.7879202 190.473447,32.2049363 C152.036734,54.6177409 113.570109,76.9806505 75.0237193,99.2138332 C72.6008603,100.610891 71.9527705,102.057844 72.0026236,104.632423 C72.1621534,112.116663 72.0524766,119.600903 72.0524766,127.085144 C72.0524766,164.007395 72.0325354,200.929646 72.1222709,237.851898 C72.1222709,239.628158 72.5809191,242.232673 73.7674221,243.021013 C78.972082,246.473743 84.5157428,249.417544 90.7174641,253 Z" id="路径" fill="#FFFFFF" fill-rule="nonzero"></path>
        <path d="M162,9.68798333 C156.781615,6.6540991 151.982297,4.05932969 147.392512,1.13522417 C144.987864,-0.401677706 143.171906,-0.341798412 140.707391,1.09530464 C102.272935,23.5001405 63.7885903,45.8251372 25.2443786,68.0403553 C22.6601303,69.5273578 21.9616849,71.1341188 22.0015961,73.9085261 C22.1412851,84.3774227 22.0614628,94.8463192 22.0614628,105.325196 C22.0614628,139.236836 22.0315294,173.138496 22.1313074,207.050136 C22.1412851,208.786636 22.6601303,211.331506 23.8574654,212.119916 C29.0558952,215.552996 34.5835922,218.467122 40.7299122,222 C40.7299122,219.345351 40.7299122,217.568932 40.7299122,215.792513 C40.7299122,172.409965 40.789779,129.027416 40.6301343,85.6448677 C40.6101787,81.5930355 41.9671585,79.51722 45.3895412,77.5412033 C82.7962846,56.0145971 120.113228,34.3283128 157.440149,12.6619883 C158.83704,11.8436379 160.154108,10.8955491 162,9.68798333 Z" id="路径" fill="#FFFFFF" fill-rule="nonzero"></path>
        <path d="M284,415.865123 C271.414241,415.847375 258.80178,416.273322 246.233823,415.696519 C232.099322,415.048724 224.026279,408.437666 222.85137,394.390279 C221.249223,375.187154 221.534049,355.833172 221,336 C242.646793,336 263.323396,336 284,336 C284,339.8424 284,343.693673 284,347.536073 C266.910427,347.536073 249.820853,347.536073 232.633371,347.536073 C232.633371,354.865917 232.633371,361.734317 232.633371,369.241639 C248.930771,369.241639 264.961147,369.241639 280.929217,369.241639 C280.929217,373.226021 280.929217,376.562608 280.929217,380.236404 C272.687058,380.236404 264.720825,380.236404 256.745691,380.236404 C248.681548,380.236404 240.608505,380.236404 232.588867,380.236404 C232.08152,398.836104 237.991664,404.790492 252.473298,404.781619 C262.976264,404.772745 273.488132,405.056709 284,405.207566 C284,408.766001 284,412.315562 284,415.865123 Z" id="路径" fill="#FFFFFF" fill-rule="nonzero"></path>
        <path d="M265.921324,122.062084 C265.921324,129.301915 266.191131,135.583092 265.73146,141.81434 C265.621539,143.382138 263.463086,145.219557 261.804276,146.188197 C223.981388,168.127382 186.118528,190.00665 148.175726,211.73613 C144.888083,213.613493 143.499078,215.520814 143.579021,219.445302 C143.858821,232.896409 143.688942,246.367488 143.688942,261.036883 C184.549653,237.479971 224.670893,214.352455 265.581568,190.765585 C265.581568,198.135233 265.701482,204.556215 265.461654,210.96721 C265.421683,212.055681 264.012693,213.443731 262.893495,214.09282 C223.901445,236.671107 184.879416,259.199464 145.787438,281.598004 C144.608283,282.27705 142.359895,282.027401 141.040841,281.35834 C136.594028,279.111496 132.217166,276.674919 128.100117,273.86886 C126.63117,272.870262 125.122251,270.64339 125.112258,268.975733 C124.962366,223.229986 125.002337,177.474253 125.01233,131.728506 C125.01233,131.408955 125.142237,131.089404 125.212187,130.729909 C164.474043,107.98186 203.765878,85.2637696 242.967778,62.3859032 C246.175479,60.5185261 248.50381,60.5185261 251.501661,62.5057349 C255.748616,65.3217795 260.275371,67.7084273 265.351733,70.6742616 C255.179025,76.5759722 245.715808,82.0682579 236.262584,87.5505576 C206.923615,104.556671 177.604631,121.622701 148.185719,138.508983 C144.928054,140.37636 143.479093,142.283681 143.559035,146.228141 C143.848828,159.69922 143.668957,173.180284 143.668957,186.651363 C143.668957,188.269091 143.668957,189.876833 143.668957,192.523116 C184.689553,168.886316 224.900729,145.70887 265.921324,122.062084 Z" id="路径" fill="#FFFFFF" fill-rule="nonzero"></path>
        <path d="M90.7074935,253 C84.5157428,249.417769 78.9621114,246.484132 73.7674221,243.011663 C72.5809191,242.213394 72.1222709,239.609043 72.1222709,237.842873 C72.0325354,200.922946 72.0524766,164.003019 72.0524766,127.083092 C72.0524766,119.599323 72.1521828,112.115554 72.0026236,104.631785 C71.9527705,102.057369 72.6008603,100.610506 75.0237193,99.2135363 C113.570109,76.9817532 152.036734,54.6202514 190.473447,32.2088579 C192.896306,30.7919309 194.76081,30.4626451 197.253463,32.0791392 C201.820004,35.0327334 206.62584,37.6271066 212,40.7603112 C209.636965,42.2171516 207.902078,43.3347278 206.117338,44.3724771 C169.076511,65.8858184 132.055625,87.4290947 94.9350334,108.802739 C91.7843197,110.6188 90.6277286,112.534645 90.6376992,116.176746 C90.7673171,159.582606 90.7174641,202.988466 90.7174641,246.394327 C90.7074935,248.220366 90.7074935,250.046406 90.7074935,253 Z" id="路径" fill="#FFFFFF" fill-rule="nonzero"></path>
        <path d="M162,9.68798333 C160.144131,10.905529 158.83704,11.8536178 157.440149,12.6619883 C120.113228,34.3183329 82.7962846,56.0145971 45.3895412,77.5412033 C41.9571807,79.51722 40.6101787,81.5830556 40.6301343,85.6448677 C40.789779,129.027416 40.7299122,172.409965 40.7299122,215.792513 C40.7299122,217.568932 40.7299122,219.335371 40.7299122,222 C34.59357,218.477102 29.0558952,215.552996 23.8574654,212.119916 C22.6601303,211.331506 22.1313074,208.786636 22.1313074,207.050136 C22.0315294,173.138496 22.0614628,139.236836 22.0614628,105.325196 C22.0614628,94.8562991 22.1512629,84.3774227 22.0015961,73.9085261 C21.9616849,71.1341188 22.6601303,69.5373377 25.2443786,68.0403553 C63.7985681,45.8351171 102.272935,23.5001405 140.707391,1.09530464 C143.181884,-0.341798412 144.997842,-0.401677706 147.392512,1.13522417 C151.982297,4.05932969 156.781615,6.6540991 162,9.68798333 Z" id="路径" fill="#FFFFFF" fill-rule="nonzero"></path>
        <path d="M0.00878286836,336.018931 C8.93217713,336.018931 17.3812965,335.966345 25.8304159,336.03646 C33.7174317,336.09781 41.6220132,336.027695 49.4826804,336.500968 C57.5190049,336.983006 64.518951,339.997931 67.654435,348.008517 C70.9392278,356.404733 70.2278154,364.590606 64.2818136,371.86499 C64.0095446,372.206798 63.7548415,372.557371 63.4474411,372.969294 C63.5967498,373.346159 63.6406642,373.85449 63.9129331,374.099891 C72.1512636,381.383038 73.5301739,390.594336 70.5791302,400.462958 C67.6983494,410.094943 60.0133395,415.187011 50.5454074,415.607698 C33.8140432,416.343901 17.0299818,415.818042 0,415.818042 C0.00878286836,389.393625 0.00878286836,363.048086 0.00878286836,336.018931 Z M12.0088702,404.973344 C18.8123461,404.973344 25.1279586,405.043732 31.4347008,404.955748 C37.9099777,404.858965 44.4562165,405.149313 50.8339207,404.27827 C59.2251699,403.134477 62.6934346,398.18977 61.8862425,390.262403 C61.2653256,384.182701 56.0141422,380.065045 48.6518411,380.029852 C37.590649,379.977061 26.5294568,380.003456 15.4593945,380.03865 C14.341744,380.03865 13.2329637,380.276207 12,380.416982 C12.0088702,388.573108 12.0088702,396.430088 12.0088702,404.973344 Z M11.0088336,368.966422 C22.5896304,368.966422 33.7375828,369.086728 44.8767017,368.871897 C47.4207669,368.820338 50.106169,367.943829 52.4293952,366.861083 C56.8020073,364.824489 58.8425596,359.694335 57.6765297,354.761824 C56.7578395,350.860501 53.5689245,348.377059 48.5161283,348.136449 C43.6841711,347.913025 38.8257132,348.033331 33.9760889,348.024737 C26.3880611,348.016144 18.8000333,348.024737 11,348.024737 C11.0088336,355.208672 11.0088336,361.859827 11.0088336,368.966422 Z" id="形状" fill="#FFFFFF" fill-rule="nonzero"></path>
        <path d="M170.855352,367.691725 C170.855352,371.674351 170.855352,375.04221 170.855352,378.864462 C155.089612,378.864462 139.547183,378.864462 123.638525,378.864462 C123.638525,391.418198 123.638525,403.526451 123.638525,416 C119.967296,416 116.662296,416 113,416 C113,389.43134 113,362.84486 113,336 C133.732171,336 154.196369,336 175,336 C175,339.572781 175,343.029736 175,347.119278 C157.956923,347.119278 140.949575,347.119278 123.692119,347.119278 C123.692119,354.184653 123.692119,360.63526 123.692119,367.691725 C139.475724,367.691725 155.125342,367.691725 170.855352,367.691725 Z" id="路径" fill="#FFFFFF" fill-rule="nonzero"></path>
    </g>
</svg>