<svg id="图层_1" data-name="图层 1" xmlns="http://www.w3.org/2000/svg" viewBox="0 0 244.9 284.23"><defs><style>.cls-1{fill:#fff;}</style></defs><title>bfe开源logo本身最终版-白色</title><polygon class="cls-1" points="122.82 0 141.16 10.62 18.35 81.84 0 71.22 122.82 0"/><polygon class="cls-1" points="19.43 223.38 0.43 212.41 0.43 70.41 19.43 81.38 19.43 223.38"/><polygon class="cls-1" points="172.82 30.55 191.16 41.17 68.35 112.4 50 101.78 172.82 30.55"/><polygon class="cls-1" points="69.43 253.93 50.43 242.96 50.43 100.96 69.43 111.93 69.43 253.93"/><polygon class="cls-1" points="225.82 60.55 244.16 71.17 121.35 142.4 103 131.78 225.82 60.55"/><polygon class="cls-1" points="122.43 283.93 103.43 272.96 103.43 130.96 122.43 141.93 122.43 283.93"/><polygon class="cls-1" points="244.9 122.42 244.9 144.36 121.92 215.36 121.92 193.42 244.9 122.42"/><polygon class="cls-1" points="244.43 191.29 244.43 213.23 121.45 284.23 121.45 262.29 244.43 191.29"/></svg>